<?xml version="1.0" encoding="UTF-8" standalone="no"?>
<!DOCTYPE svg PUBLIC "-//W3C//DTD SVG 1.1//EN" "http://www.w3.org/Graphics/SVG/1.1/DTD/svg11.dtd">
<svg width="100%" height="100%" viewBox="0 0 729 729" version="1.1" xmlns="http://www.w3.org/2000/svg" xmlns:xlink="http://www.w3.org/1999/xlink" xml:space="preserve" xmlns:serif="http://www.serif.com/" style="fill-rule:evenodd;clip-rule:evenodd;stroke-linejoin:round;stroke-miterlimit:2;">
    <g transform="matrix(1,0,0,1,0,-1534)">
        <g id="Artboard2" transform="matrix(1,0,0,1,1741.17,1534)">
            <rect x="-1741.16" y="0" width="728.59" height="728.59" style="fill:none;"/>
            <g id="certificate.eps" transform="matrix(4.98644,-2.96598e-32,4.45851e-32,4.98644,-1376.87,364.295)">
                <g transform="matrix(1,0,0,1,-64,-54)">
                    <clipPath id="_clip1">
                        <rect x="0" y="0" width="128" height="108"/>
                    </clipPath>
                    <g clip-path="url(#_clip1)">
                        <g>
                            <g>
                                <clipPath id="_clip2">
                                    <rect x="0" y="0" width="128" height="108"/>
                                </clipPath>
                                <g clip-path="url(#_clip2)">
                                    <path d="M97,27L31,27C29.895,27 29,27.895 29,29C29,30.105 29.895,31 31,31L97,31C98.105,31 99,30.105 99,29C99,27.895 98.105,27 97,27ZM99,39C99,37.895 98.105,37 97,37L31,37C29.895,37 29,37.895 29,39C29,40.105 29.895,41 31,41L97,41C98.105,41 99,40.105 99,39ZM61,49C61,47.895 60.105,47 59,47L31,47C29.895,47 29,47.895 29,49C29,50.105 29.895,51 31,51L59,51C60.105,51 61,50.105 61,49ZM29,68C29,72.418 32.582,76 37,76C41.418,76 45,72.418 45,68C45,63.582 41.418,60 37,60C32.582,60.004 29.004,63.586 29,68ZM41,68C41,70.211 39.211,72 37,72C34.789,72 33,70.211 33,68C33,65.793 34.789,64 37,64C39.211,64 41,65.793 41,68Z" style="fill:white;fill-rule:nonzero;"/>
                                    <path d="M122,0L6,0C2.688,0.004 0.004,2.688 0,6L0,88C0.004,91.312 2.688,93.996 6,94L66.598,94L69.453,90L6,90C4.895,90 4,89.105 4,88L4,6C4,4.895 4.895,4 6,4L122,4C123.105,4 124,4.895 124,6L124,88C124,89.105 123.105,90 122,90L108.547,90L111.402,94L122,94C125.312,93.996 127.996,91.312 128,88L128,6C127.996,2.688 125.312,0.004 122,0Z" style="fill:white;fill-rule:nonzero;"/>
                                    <path d="M82.906,97.34L79.414,102.168L79.02,100.215C78.934,99.539 78.59,98.922 78.062,98.488C77.477,98.012 76.719,97.793 75.969,97.891L73.469,98.145L77.277,92.809C75.926,92.535 74.652,91.973 73.543,91.156L68.512,98.203C67.879,99.062 67.832,100.219 68.387,101.129C68.949,102.051 70.004,102.551 71.07,102.406L75.293,101.98L76.039,105.652C76.164,106.707 76.91,107.586 77.93,107.879C78.191,107.961 78.461,108 78.734,108C79.605,108 80.426,107.586 80.945,106.883L88.141,96.93C87.09,97.355 85.973,97.582 84.84,97.598C84.188,97.594 83.539,97.508 82.906,97.34ZM104.457,91.156C103.348,91.973 102.074,92.535 100.723,92.809L104.531,98.145L102.027,97.891C101.277,97.793 100.523,98.012 99.938,98.488C99.41,98.922 99.066,99.539 98.98,100.215L98.586,102.168L95.086,97.328C93.344,97.762 91.512,97.617 89.855,96.922L97.066,106.895C97.582,107.594 98.398,108.004 99.266,108C99.539,108 99.809,107.961 100.07,107.883C101.09,107.586 101.836,106.707 101.961,105.652L102.707,101.98L106.93,102.406C107.996,102.551 109.051,102.051 109.613,101.129C110.168,100.227 110.121,99.078 109.5,98.223L104.457,91.156ZM94.254,93.422C95.566,92.852 96.602,91.789 97.141,90.461C97.324,90.082 97.551,89.719 97.816,89.387C98.223,89.23 98.645,89.121 99.074,89.062C100.52,89.102 101.895,88.426 102.746,87.254C103.598,86.086 103.824,84.574 103.348,83.207C103.27,82.773 103.242,82.332 103.266,81.895C103.496,81.551 103.762,81.23 104.062,80.941C105.168,80.016 105.863,78.688 106,77.25C105.863,75.812 105.168,74.488 104.062,73.559C103.766,73.273 103.5,72.957 103.27,72.613C103.242,72.172 103.27,71.73 103.348,71.293C103.691,69.922 103.477,68.473 102.754,67.258C101.816,66.188 100.492,65.535 99.074,65.438C98.645,65.379 98.227,65.27 97.82,65.117C97.555,64.785 97.324,64.422 97.141,64.039C96.602,62.711 95.566,61.648 94.254,61.078C92.887,60.773 91.457,61.016 90.27,61.758C89.867,61.977 89.441,62.141 89,62.25C88.559,62.141 88.133,61.977 87.73,61.758C86.543,61.016 85.113,60.773 83.746,61.078C82.434,61.648 81.398,62.711 80.859,64.039C80.676,64.422 80.449,64.781 80.184,65.113C79.777,65.27 79.355,65.379 78.926,65.438C77.508,65.535 76.184,66.188 75.246,67.254C74.523,68.469 74.309,69.922 74.652,71.293C74.73,71.727 74.758,72.168 74.734,72.605C74.504,72.953 74.238,73.273 73.938,73.559C72.832,74.488 72.137,75.812 72,77.25C72.137,78.688 72.832,80.016 73.938,80.941C74.234,81.227 74.5,81.543 74.73,81.887C74.758,82.328 74.73,82.773 74.652,83.207C74.176,84.574 74.402,86.086 75.254,87.254C76.109,88.426 77.48,89.102 78.926,89.062C79.355,89.121 79.773,89.23 80.18,89.383C80.445,89.715 80.676,90.078 80.859,90.465C81.398,91.789 82.434,92.852 83.746,93.422C84.102,93.539 84.473,93.598 84.848,93.594C85.859,93.527 86.844,93.234 87.73,92.742C88.133,92.527 88.559,92.359 89,92.25C89.441,92.359 89.867,92.527 90.27,92.742C91.457,93.484 92.887,93.73 94.254,93.422ZM86.023,89.125C85.688,89.293 85.34,89.441 84.984,89.566C84.758,89.242 84.555,88.902 84.375,88.551C83.617,86.582 81.773,85.242 79.664,85.133C79.277,85.07 78.898,84.98 78.523,84.863C78.531,84.48 78.562,84.094 78.621,83.711C78.824,82.699 78.793,81.652 78.535,80.652C78.164,79.715 77.582,78.871 76.84,78.191C76.543,77.898 76.277,77.586 76.035,77.25C76.277,76.918 76.543,76.602 76.84,76.312C77.582,75.629 78.164,74.789 78.535,73.852C78.793,72.848 78.824,71.801 78.621,70.789C78.562,70.406 78.531,70.02 78.523,69.637C78.898,69.52 79.277,69.434 79.664,69.367C81.773,69.262 83.617,67.918 84.375,65.949C84.551,65.598 84.758,65.258 84.984,64.938C85.34,65.059 85.688,65.207 86.023,65.375C87.836,66.543 90.164,66.543 91.977,65.375C92.312,65.207 92.66,65.059 93.016,64.938C93.242,65.258 93.445,65.598 93.625,65.949C94.383,67.918 96.227,69.258 98.336,69.367C98.723,69.43 99.102,69.52 99.477,69.637C99.469,70.023 99.438,70.406 99.379,70.789C99.176,71.801 99.207,72.848 99.465,73.852C99.836,74.789 100.418,75.629 101.16,76.312C101.457,76.602 101.723,76.918 101.965,77.25C101.723,77.586 101.457,77.898 101.16,78.191C100.418,78.871 99.836,79.715 99.465,80.652C99.207,81.652 99.176,82.699 99.379,83.715C99.438,84.094 99.469,84.48 99.477,84.867C99.102,84.98 98.723,85.07 98.336,85.133C96.227,85.242 94.383,86.582 93.625,88.551C93.449,88.902 93.242,89.242 93.016,89.566C92.66,89.441 92.312,89.293 91.977,89.125C90.164,87.961 87.836,87.961 86.023,89.125Z" style="fill:white;fill-rule:nonzero;"/>
                                    <path d="M96,77.25C96,73.383 92.867,70.25 89,70.25C85.133,70.25 82,73.387 82,77.25C82,81.117 85.133,84.25 89,84.25C92.863,84.246 95.996,81.113 96,77.25ZM89,80.25C87.344,80.25 86,78.906 86,77.25C86,75.594 87.344,74.25 89,74.25C90.656,74.25 92,75.594 92,77.25C92,78.906 90.656,80.25 89,80.25Z" style="fill:white;fill-rule:nonzero;"/>
                                    <path d="M116,86C118.207,86 119.996,84.211 120,82L120,12C119.996,9.793 118.207,8.004 116,8L12,8C9.793,8.004 8.003,9.793 8,12L8,82C8.003,84.207 9.793,86 12,86L70.605,86C70.5,85.086 70.504,84.164 70.617,83.25C70.254,82.855 69.914,82.438 69.602,82L12,82L12,27.578L27.414,12.164C27.461,12.113 27.508,12.059 27.547,12L100.453,12C100.492,12.059 100.539,12.113 100.586,12.164L116,27.578L116.004,82L108.398,82C108.086,82.438 107.746,82.855 107.383,83.25C107.496,84.164 107.5,85.086 107.395,86L116,86ZM12,21.922L12,12L21.922,12L12,21.922ZM106.078,12L116,12L116,21.922L106.078,12Z" style="fill:white;fill-rule:nonzero;"/>
                                </g>
                            </g>
                        </g>
                    </g>
                </g>
            </g>
        </g>
    </g>
</svg>
