<?xml version="1.0" encoding="UTF-8" standalone="no"?>
<!DOCTYPE svg PUBLIC "-//W3C//DTD SVG 1.1//EN" "http://www.w3.org/Graphics/SVG/1.1/DTD/svg11.dtd">
<svg width="100%" height="100%" viewBox="0 0 729 729" version="1.1" xmlns="http://www.w3.org/2000/svg" xmlns:xlink="http://www.w3.org/1999/xlink" xml:space="preserve" xmlns:serif="http://www.serif.com/" style="fill-rule:evenodd;clip-rule:evenodd;stroke-linejoin:round;stroke-miterlimit:2;">
    <g transform="matrix(1,0,0,1,0,-1534)">
        <g id="Artboard2" transform="matrix(1,0,0,1,1741.17,1534)">
            <rect x="-1741.16" y="0" width="728.59" height="728.59" style="fill:none;"/>
            <g id="scuba-tanks.eps" transform="matrix(8.68606,-1.79988e-32,1.42269e-31,8.68606,-1376.87,364.295)">
                <g transform="matrix(1,0,0,1,-25,-31)">
                    <g>
                        <g>
                            <path d="M9.198,16C6.301,16 4,18.301 4,21.199C4,21.801 4.398,22.199 5,22.199C5.602,22.199 6,21.801 6,21.199C6,19.398 7.398,18 9.198,18C9.801,18 10.199,17.602 10.199,17C10.199,16.398 9.801,16 9.198,16ZM4,29L4,47C4,47.602 4.398,48 5,48C5.602,48 6,47.602 6,47L6,29C6,28.398 5.602,28 5,28C4.398,28 4,28.398 4,29ZM37,32C36.398,32 36,32.398 36,33L36,35.102C36,35.699 36.398,36.102 37,36.102C37.602,36.102 38,35.699 38,35.102L38,33C38,32.398 37.602,32 37,32ZM24,21.199C24,21.801 24.398,22.199 25,22.199C25.602,22.199 26,21.801 26,21.199C26,19.398 27.398,18 29.199,18C29.801,18 30.199,17.602 30.199,17C30.199,16.398 29.801,16 29.199,16C26.301,16 24,18.301 24,21.199ZM24,29L24,47C24,47.602 24.398,48 25,48C25.602,48 26,47.602 26,47L26,29C26,28.398 25.602,28 25,28C24.398,28 24,28.398 24,29Z" style="fill:white;fill-rule:nonzero;"/>
                            <path d="M33,6C33.602,6 34,5.602 34,5L34,4L39,4C41.699,4 44,6.199 44,9C44,9.602 44.398,10 45,10C45.602,10 46,9.602 46,9C46,5.199 42.898,2 39,2L34,2L34,1C34,0.398 33.602,0 33,0L25,0C24.398,0 24,0.398 24,1L24,2L14,2L14,1C14,0.398 13.602,0 13,0L10,0C9.398,0 9,0.398 9,1C9,1.602 9.398,2 10,2L12,2L12,4L6,4L6,2C6.5,2 7,1.5 7,1C7,0.398 6.602,0 6,0L5,0C4.398,0 4,0.398 4,1L4,5C4,5.602 4.398,6 5,6L8,6L8,8.199C6.801,8.602 6,9.699 6,11L6,12.5C2.5,13.699 0,17.102 0,21L0,57.301C0,59.898 2.102,62 4.699,62L13.301,62C15.898,62 18,59.898 18,57.301C18,56.699 17.602,56.301 17,56.301C16.398,56.301 16,56.699 16,57.301C16,58.801 14.801,60 13.301,60L4.699,60C3.199,60 2,58.801 2,57.301L2,26L16,26L16,53C16,53.602 16.398,54 17,54C17.602,54 18,53.602 18,53L18,48L20,48L20,57.301C20,59.898 22.102,62 24.699,62L33.301,62C35.898,62 38,59.898 38,57.301L38,39.199C38,38.602 37.602,38.199 37,38.199C36.398,38.199 36,38.602 36,39.199L36,57.301C36,58.801 34.801,60 33.301,60L24.699,60C23.199,60 22,58.801 22,57.301L22,26L36,26L36,29C36,29.602 36.398,30 37,30C37.602,30 38,29.602 38,29L38,21C38,17.102 35.5,13.801 32,12.5L32,11C32,9.699 31.199,8.602 30,8.199L30,6L33,6ZM8,11C8,10.398 8.398,10 9,10C9.602,10 10,10.398 10,11L10,12.102C9.699,12.102 9.301,12 9,12C8.699,12 8.301,12 8,12.102L8,11ZM20,46L18,46L18,44L20,44L20,46ZM20,42L18,42L18,34L20,34L20,42ZM20,32L18,32L18,30L20,30L20,32ZM20,21L20,28L18,28L18,21C18,20.398 17.602,20 17,20C16.398,20 16,20.398 16,21L16,24L2,24L2,21C2,17.102 5.102,14 9,14C11.5,14 13.801,15.301 15.102,17.5C15.398,18 16,18.102 16.5,17.898C17,17.699 17.102,17 16.898,16.5C15.801,14.602 14.102,13.199 12.102,12.5L12.102,11C12.102,9.699 11.301,8.602 10.102,8.199L10.102,6L13.102,6C13.699,6 14.102,5.602 14.102,5L14.102,4L24.102,4L24.102,5C24.102,5.602 24.5,6 25.102,6L28.102,6L28.102,8.199C26.898,8.602 26.102,9.699 26.102,11L26.102,12.5C22.5,13.801 20,17.102 20,21ZM29,10C29.602,10 30,10.398 30,11L30,12.102C29.699,12.102 29.301,12 29,12C28.699,12 28.301,12 28,12.102L28,11C28,10.398 28.398,10 29,10ZM36,21L36,24L22,24L22,21C22,17.102 25.102,14 29,14C32.898,14 36,17.102 36,21ZM26,4L26,2L32,2L32,4L26,4Z" style="fill:white;fill-rule:nonzero;"/>
                            <path d="M46,44.102L46,13C46,12.398 45.602,12 45,12C44.398,12 44,12.398 44,13L44,44.102C41.699,44.602 40,46.602 40,49C40,51.801 42.199,54 45,54C45.898,54 46.699,53.801 47.398,53.398C47.898,53.102 48.102,52.5 47.801,52C47.5,51.5 46.898,51.301 46.398,51.602C46,51.898 45.5,52 45,52C43.301,52 42,50.699 42,49C42,47.301 43.301,46 45,46C46.699,46 48,47.301 48,49C48,49.602 48.398,50 49,50C49.602,50 50,49.602 50,49C50,46.602 48.301,44.602 46,44.102Z" style="fill:white;fill-rule:nonzero;"/>
                            <path d="M46,49C46,49.551 45.551,50 45,50C44.449,50 44,49.551 44,49C44,48.449 44.449,48 45,48C45.551,48 46,48.449 46,49Z" style="fill:white;fill-rule:nonzero;"/>
                        </g>
                    </g>
                </g>
            </g>
        </g>
    </g>
</svg>
