<?xml version="1.0" encoding="UTF-8" standalone="no"?>
<!DOCTYPE svg PUBLIC "-//W3C//DTD SVG 1.1//EN" "http://www.w3.org/Graphics/SVG/1.1/DTD/svg11.dtd">
<svg width="100%" height="100%" viewBox="0 0 729 729" version="1.1" xmlns="http://www.w3.org/2000/svg" xmlns:xlink="http://www.w3.org/1999/xlink" xml:space="preserve" xmlns:serif="http://www.serif.com/" style="fill-rule:evenodd;clip-rule:evenodd;stroke-linejoin:round;stroke-miterlimit:2;">
    <g id="Artboard2" transform="matrix(1,0,0,1,1741.17,0)">
        <rect x="-1741.16" y="0" width="728.59" height="728.59" style="fill:none;"/>
        <clipPath id="_clip1">
            <rect x="-1741.16" y="0" width="728.59" height="728.59"/>
        </clipPath>
        <g clip-path="url(#_clip1)">
            <g transform="matrix(8.88525,-2.34688e-32,1.12502e-31,8.88525,-1740.33,0)">
                <clipPath id="_clip2">
                    <rect x="0" y="0" width="78" height="82"/>
                </clipPath>
                <g clip-path="url(#_clip2)">
                    <path d="M71.699,44.398C72.5,43.898 73.301,43.301 74,42.699L74,61C74,70.898 65.898,79 56,79L48.5,79C48.801,78 49,77 49,76C49,75 48.801,74 48.5,73L56,73C62.602,73 68,67.602 68,61L68,46.602C68.5,46.398 68.898,46.102 69.398,45.801L71.699,44.398ZM74,15.102L74,3C74,1.301 72.699,0 71,0C69.301,0 68,1.301 68,3L68,13.398L70.199,13.801C71.5,14.102 72.801,14.5 74,15.102ZM23,73C21.3,73 20,74.301 20,76C20,77.602 21.3,79 23,79L29.5,79C29.199,78 29,77 29,76C29,75 29.199,74 29.5,73L23,73ZM25,55.399C33.5,53.602 44.602,53.602 53.101,55.399C55.602,55.899 58.199,54.801 59.5,52.602L62.102,48.301C60.398,48.398 58.699,48.301 57,47.898C52.699,46.898 49.199,44.199 47,40.398L45,36.898C44.102,35.398 42.801,34.398 41.199,33.801C39.801,33.301 38.199,33.301 36.801,33.801C35.199,34.301 33.898,35.398 33,36.898L31,40.398C28.801,44.199 25.199,46.898 21,47.898C19.699,48.199 18.398,48.398 17.199,48.398L16,48.398L18.602,52.699C19.801,54.801 22.398,56 25,55.399ZM69.398,17.699L56.102,15C52.801,14.301 49.5,14.602 46.301,15.602C41.602,17.199 36.398,17.199 31.699,15.602C29.699,14.898 27.699,14.602 25.699,14.602C24.398,14.602 23.199,14.699 21.898,15L8.602,17.699C3.398,18.699 -0.102,23.699 0.699,29C1.5,33.898 4.301,38.301 8.5,41L10.801,42.398C13.602,44.199 16.898,44.699 20.102,43.898C23.301,43.102 26,41.102 27.602,38.199L29.602,34.699C30.898,32.398 33.102,30.699 35.602,29.801C36.699,29.398 37.898,29.199 39,29.199C40.102,29.199 41.301,29.398 42.398,29.801C44.898,30.602 47,32.398 48.398,34.699L50.398,38.199C52.102,41.102 54.699,43.102 57.898,43.898C61.102,44.699 64.398,44.102 67.199,42.398L69.5,41C73.699,38.301 76.602,33.898 77.301,29C78.102,23.699 74.602,18.801 69.398,17.699ZM39,70C35.699,70 33,72.699 33,76C33,79.301 35.699,82 39,82C42.301,82 45,79.301 45,76C45,72.699 42.301,70 39,70Z" style="fill:none;fill-rule:nonzero;stroke:white;stroke-width:2.25px;"/>
                </g>
            </g>
        </g>
    </g>
</svg>
